<?xml version="1.0" encoding="UTF-8"?>
<!-- UE Unique Hero Background • generated by Codex CLI • 2025-09-09 -->
<svg xmlns="http://www.w3.org/2000/svg" width="2400" height="1400" viewBox="0 0 2400 1400">
  <defs>
    <linearGradient id="lg-brand" x1="0" y1="0" x2="1" y2="1">
      <stop offset="0%" stop-color="#18a058" stop-opacity="0.22" />
      <stop offset="50%" stop-color="#36ad6a" stop-opacity="0.18" />
      <stop offset="100%" stop-color="#8fd19e" stop-opacity="0.12" />
    </linearGradient>
    <radialGradient id="rg-emerald" cx="12%" cy="-10%" r="60%">
      <stop offset="0%" stop-color="#18a058" stop-opacity="0.28" />
      <stop offset="100%" stop-color="#18a058" stop-opacity="0" />
    </radialGradient>
    <radialGradient id="rg-mint" cx="88%" cy="-12%" r="55%">
      <stop offset="0%" stop-color="#36ad6a" stop-opacity="0.22" />
      <stop offset="100%" stop-color="#36ad6a" stop-opacity="0" />
    </radialGradient>

    <!-- Soft blobs with blur -->
    <filter id="blur-48" x="-20%" y="-20%" width="140%" height="140%">
      <feGaussianBlur in="SourceGraphic" stdDeviation="48" />
    </filter>
    <filter id="blur-28" x="-20%" y="-20%" width="140%" height="140%">
      <feGaussianBlur in="SourceGraphic" stdDeviation="28" />
    </filter>

    <!-- Fine noise overlay -->
    <filter id="noise" x="0" y="0" width="100%" height="100%">
      <feTurbulence type="fractalNoise" baseFrequency="0.8" numOctaves="2" stitchTiles="stitch" />
      <feColorMatrix type="saturate" values="0"/>
      <feComponentTransfer>
        <feFuncA type="table" tableValues="0 0.02"/>
      </feComponentTransfer>
    </filter>

    <!-- Unique signature path (subtle) -->
    <path id="ue-mark" d="M0 0 h24 v6 h-18 v22 h-6z"/>
  </defs>

  <!-- Base background -->
  <rect width="2400" height="1400" fill="#f9fdfb"/>
  <rect width="2400" height="1400" fill="url(#lg-brand)"/>

  <!-- Radial brand tints (top corners) -->
  <rect width="2400" height="1400" fill="url(#rg-emerald)"/>
  <rect width="2400" height="1400" fill="url(#rg-mint)"/>

  <!-- Decorative blobs (unique placement) -->
  <g filter="url(#blur-48)">
    <circle cx="380" cy="280" r="160" fill="#18a058" fill-opacity="0.18"/>
    <circle cx="620" cy="360" r="110" fill="#36ad6a" fill-opacity="0.16"/>
    <circle cx="1820" cy="300" r="180" fill="#22c55e" fill-opacity="0.14"/>
  </g>
  <g filter="url(#blur-28)">
    <circle cx="1280" cy="960" r="220" fill="#16a34a" fill-opacity="0.10"/>
    <circle cx="1680" cy="980" r="130" fill="#059669" fill-opacity="0.08"/>
    <circle cx="780"  cy="980" r="140" fill="#10b981" fill-opacity="0.08"/>
  </g>

  <!-- Gentle diagonal strokes -->
  <g stroke="#16a34a" stroke-opacity="0.06" stroke-width="2">
    <path d="M-100 1080 L 3000 -120" />
    <path d="M-200 1200 L 3100   0" />
    <path d="M-300 1320 L 3200 120" />
  </g>

  <!-- Subtle dot grid -->
  <g fill="#0f5132" fill-opacity="0.06">
    <!-- Unique scattered points -->
    <circle cx="220" cy="1080" r="2"/>
    <circle cx="460" cy="1120" r="2"/>
    <circle cx="1120" cy="1180" r="2"/>
    <circle cx="1340" cy="1020" r="2"/>
    <circle cx="1520" cy="1150" r="2"/>
    <circle cx="1860" cy="1080" r="2"/>
    <circle cx="2040" cy="1240" r="2"/>
  </g>

  <!-- Signature (nearly invisible, ensures uniqueness) -->
  <g transform="translate(2310,1330) scale(0.8)" fill="#18a058" fill-opacity="0.06">
    <use href="#ue-mark"/>
  </g>

  <!-- Noise layer -->
  <rect width="2400" height="1400" fill="#000" filter="url(#noise)"/>
</svg>

